<svg width="1700" height="500" viewBox="0 0 1700 500" fill="none" xmlns="http://www.w3.org/2000/svg">
<g clip-path="url(#clip0)">
<rect width="1700" height="500" fill="#FAFAFA"/>
<path d="M-201.242 218.551L354.226 -63.4521L320.714 558.599L-201.242 218.551Z" fill="white" stroke="#F5F5F5" stroke-width="11"/>
<path d="M132.155 381L85.2554 119.25L179.055 119.25L132.155 381Z" fill="#14B8A6"/>
<path d="M184.611 132.842L295.289 173.071L165.925 238.052L184.611 132.842Z" fill="#3B82F6"/>
<path d="M492.06 228.344H518.935C515.515 203.607 493.71 186.199 465.43 186.199C432.386 186.199 406.915 210.02 406.915 250.577C406.915 290.156 430.737 314.71 465.979 314.71C497.558 314.71 520.096 294.737 520.096 261.815V246.057H467.751V265.969H494.626C494.259 281.483 483.692 291.317 466.102 291.317C446.251 291.317 433.729 276.474 433.729 250.332C433.729 224.312 446.739 209.592 465.857 209.592C479.478 209.592 488.701 216.616 492.06 228.344ZM566.226 314.771C580.091 314.771 589.07 308.724 593.651 299.99H594.384V313H619.06V249.722C619.06 227.366 600.125 217.96 579.236 217.96C556.759 217.96 541.978 228.71 538.374 245.812L562.439 247.767C564.211 241.537 569.769 236.956 579.114 236.956C587.971 236.956 593.04 241.415 593.04 249.111V249.477C593.04 255.524 586.627 256.318 570.319 257.906C551.75 259.616 535.076 265.847 535.076 286.797C535.076 305.365 548.33 314.771 566.226 314.771ZM573.678 296.814C565.676 296.814 559.935 293.088 559.935 285.942C559.935 278.612 565.982 275.009 575.144 273.726C580.824 272.932 590.108 271.588 593.223 269.511V279.467C593.223 289.301 585.1 296.814 573.678 296.814ZM638.758 313H717.612V292.233H672.902V291.561L716.024 236.101V219.182H640.346V239.949H684.69V240.621L638.758 297.486V313ZM777.577 314.832C800.787 314.832 816.423 303.533 820.088 286.125L796.023 284.537C793.396 291.683 786.678 295.409 778.004 295.409C764.994 295.409 756.749 286.797 756.749 272.81V272.749H820.638V265.602C820.638 233.719 801.337 217.96 776.538 217.96C748.93 217.96 731.034 237.567 731.034 266.518C731.034 296.264 748.686 314.832 777.577 314.832ZM756.749 256.624C757.298 245.935 765.422 237.384 776.966 237.384C788.266 237.384 796.084 245.446 796.145 256.624H756.749ZM838.107 313H864.554V272.443H886.787C915.555 272.443 932.291 255.28 932.291 230.298C932.291 205.439 915.861 187.909 887.459 187.909H838.107V313ZM864.554 251.249V209.531H882.389C897.659 209.531 905.05 217.838 905.05 230.298C905.05 242.697 897.659 251.249 882.511 251.249H864.554ZM1009.14 273.054C1009.21 285.636 1000.59 292.233 991.248 292.233C981.414 292.233 975.062 285.331 975.001 274.276V219.182H948.981V278.918C949.042 300.845 961.869 314.222 980.743 314.222C994.852 314.222 1004.99 306.953 1009.21 295.959H1010.18V313H1035.16V219.182H1009.14V273.054ZM1056.47 313H1082.12V297.974H1083.28C1086.88 305.793 1094.76 314.527 1109.91 314.527C1131.29 314.527 1147.96 297.608 1147.96 266.213C1147.96 233.963 1130.56 217.96 1109.97 217.96C1094.27 217.96 1086.76 227.305 1083.28 234.94H1082.49V187.909H1056.47V313ZM1081.94 266.091C1081.94 249.355 1089.02 238.666 1101.66 238.666C1114.55 238.666 1121.39 249.844 1121.39 266.091C1121.39 282.46 1114.43 293.821 1101.66 293.821C1089.14 293.821 1081.94 282.827 1081.94 266.091ZM1191.34 187.909H1165.32V313H1191.34V187.909ZM1212.19 313H1238.21V219.182H1212.19V313ZM1225.26 207.088C1233.02 207.088 1239.37 201.163 1239.37 193.895C1239.37 186.688 1233.02 180.763 1225.26 180.763C1217.56 180.763 1211.21 186.688 1211.21 193.895C1211.21 201.163 1217.56 207.088 1225.26 207.088ZM1337.11 245.935C1334.79 228.649 1320.86 217.96 1297.17 217.96C1273.16 217.96 1257.34 229.077 1257.4 247.156C1257.34 261.205 1266.2 270.305 1284.52 273.97L1300.77 277.207C1308.95 278.857 1312.68 281.849 1312.8 286.553C1312.68 292.111 1306.63 296.081 1297.53 296.081C1288.25 296.081 1282.08 292.111 1280.49 284.476L1254.9 285.82C1257.34 303.777 1272.61 314.832 1297.47 314.832C1321.78 314.832 1339.19 302.433 1339.25 283.926C1339.19 270.366 1330.33 262.243 1312.13 258.517L1295.15 255.097C1286.42 253.203 1283.18 250.21 1283.24 245.69C1283.18 240.071 1289.53 236.406 1297.59 236.406C1306.63 236.406 1312.01 241.354 1313.29 247.401L1337.11 245.935ZM1381.65 258.761C1381.71 246.668 1389.11 239.582 1399.73 239.582C1410.3 239.582 1416.53 246.362 1416.47 257.906V313H1442.49V253.264C1442.55 231.276 1429.6 217.96 1410.06 217.96C1395.82 217.96 1386.3 224.679 1382.02 235.734H1380.92V187.909H1355.63V313H1381.65V258.761ZM1505.72 314.832C1528.93 314.832 1544.57 303.533 1548.23 286.125L1524.17 284.537C1521.54 291.683 1514.82 295.409 1506.15 295.409C1493.14 295.409 1484.89 286.797 1484.89 272.81V272.749H1548.78V265.602C1548.78 233.719 1529.48 217.96 1504.68 217.96C1477.07 217.96 1459.18 237.567 1459.18 266.518C1459.18 296.264 1476.83 314.832 1505.72 314.832ZM1484.89 256.624C1485.44 245.935 1493.57 237.384 1505.11 237.384C1516.41 237.384 1524.23 245.446 1524.29 256.624H1484.89ZM1565.76 313H1591.78V259.922C1591.78 248.378 1600.21 240.438 1611.69 240.438C1615.3 240.438 1620.25 241.048 1622.69 241.842V218.754C1620.37 218.205 1617.13 217.838 1614.5 217.838C1604 217.838 1595.39 223.946 1591.97 235.551H1590.99V219.182H1565.76V313Z" fill="#525252"/>
</g>
<defs>
<clipPath id="clip0">
<rect width="1700" height="500" fill="white"/>
</clipPath>
</defs>
</svg>
